solid OpenSCAD_Model
  facet normal -1 0 0
    outer loop
      vertex -7 -7 -10
      vertex -7 7 -10
      vertex -7 -7 -25
    endloop
  endfacet
  facet normal -1 0 0
    outer loop
      vertex -7 -7 -25
      vertex -7 7 -10
      vertex -7 7 -25
    endloop
  endfacet
  facet normal 0 0 1
    outer loop
      vertex -7 -7 -10
      vertex 7 -7 -10
      vertex 7 7 -10
    endloop
  endfacet
  facet normal 0 0 1
    outer loop
      vertex -7 7 -10
      vertex -7 -7 -10
      vertex 7 7 -10
    endloop
  endfacet
  facet normal 0 -1 0
    outer loop
      vertex -7 -7 -25
      vertex 7 -7 -25
      vertex 7 -7 -10
    endloop
  endfacet
  facet normal 0 -1 0
    outer loop
      vertex -7 -7 -10
      vertex -7 -7 -25
      vertex 7 -7 -10
    endloop
  endfacet
  facet normal 0 0 -1
    outer loop
      vertex -7 7 -25
      vertex 7 7 -25
      vertex -7 -7 -25
    endloop
  endfacet
  facet normal 0 0 -1
    outer loop
      vertex -7 -7 -25
      vertex 7 7 -25
      vertex 7 -7 -25
    endloop
  endfacet
  facet normal 0 1 0
    outer loop
      vertex -7 7 -10
      vertex 7 7 -10
      vertex -7 7 -25
    endloop
  endfacet
  facet normal 0 1 0
    outer loop
      vertex -7 7 -25
      vertex 7 7 -10
      vertex 7 7 -25
    endloop
  endfacet
  facet normal 1 0 0
    outer loop
      vertex 7 -7 -25
      vertex 7 7 -25
      vertex 7 7 -10
    endloop
  endfacet
  facet normal 1 0 0
    outer loop
      vertex 7 -7 -10
      vertex 7 -7 -25
      vertex 7 7 -10
    endloop
  endfacet
endsolid OpenSCAD_Model
